<svg width="34" height="34" viewBox="0 0 34 34" fill="none" xmlns="http://www.w3.org/2000/svg">
<path fill-rule="evenodd" clip-rule="evenodd" d="M17 0C7.65486 0 0 7.65486 0 17C0 26.3451 7.65486 34 17 34C26.3451 34 34 26.3451 34 17C34 7.65486 26.3451 0 17 0ZM24.3567 12.5266C24.6551 17.1992 17.4972 24.0586 12.9242 24.3574C12.2284 24.3574 11.6319 24.258 11.1348 23.6615C10.8365 23.2638 10.439 22.9657 10.0412 22.5679C9.54413 22.0708 9.54413 21.4743 10.0412 20.9773C10.6377 20.2814 11.3335 19.5853 12.0296 18.9889C12.5267 18.4918 13.0238 18.4918 13.5209 18.9889C13.9186 19.3866 14.4157 19.7841 14.8132 20.1818C14.9126 20.3805 15.1115 20.3805 15.3103 20.2812C17.1991 19.1876 19.4858 17.2988 20.281 15.211C20.3804 15.0123 20.3804 14.9127 20.1817 14.7139C19.7839 14.4156 19.3864 13.9187 18.9887 13.521C18.4916 13.0239 18.4916 12.4274 18.9887 11.9304C19.6846 11.3339 20.281 10.6381 20.9771 10.0416C21.4742 9.54451 22.0707 9.54451 22.5678 9.94224C22.9655 10.4393 23.363 10.837 23.7607 11.2345C24.1584 11.5329 24.3572 12.0298 24.3572 12.5268L24.3567 12.5266Z" fill="#141423"/>
</svg>
