<svg width="137" height="50" viewBox="0 0 137 50" fill="none" xmlns="http://www.w3.org/2000/svg">
<rect x="0.5" y="0.5" width="135.538" height="49" rx="24.5" fill="#FDFDFD"/>
<g clip-path="url(#clip0_1057_8822)">
<path d="M39.5272 25.2247C39.5272 24.2414 39.4471 23.5239 39.2738 22.7798H28.0037V27.2178H34.619C34.4857 28.3207 33.7654 29.9816 32.1649 31.0977L32.1425 31.2463L35.7059 33.9965L35.9528 34.021C38.2201 31.9349 39.5272 28.8654 39.5272 25.2247Z" fill="#4285F4"/>
<path d="M28.0037 36.9173C31.2447 36.9173 33.9655 35.8543 35.9528 34.0206L32.165 31.0973C31.1514 31.8016 29.7909 32.2932 28.0037 32.2932C24.8294 32.2932 22.1353 30.2071 21.1749 27.3237L21.0341 27.3356L17.3289 30.1925L17.2804 30.3267C19.2543 34.2332 23.3089 36.9173 28.0037 36.9173Z" fill="#34A853"/>
<path d="M21.1749 27.3238C20.9215 26.5797 20.7748 25.7824 20.7748 24.9586C20.7748 24.1347 20.9215 23.3375 21.1615 22.5934L21.1548 22.4349L17.4031 19.5322L17.2804 19.5904C16.4668 21.2115 16 23.0319 16 24.9586C16 26.8853 16.4668 28.7056 17.2804 30.3267L21.1749 27.3238Z" fill="#FBBC05"/>
<path d="M28.0037 17.624C30.2577 17.624 31.7782 18.594 32.6451 19.4046L36.0328 16.1093C33.9522 14.1826 31.2447 13 28.0037 13C23.3089 13 19.2543 15.6841 17.2804 19.5906L21.1616 22.5936C22.1353 19.7102 24.8294 17.624 28.0037 17.624Z" fill="#EB4335"/>
</g>
<path d="M66.5185 24.34V25.06C66.5185 26.7933 65.8985 28.26 64.6585 29.46C63.4185 30.6467 61.7585 31.24 59.6785 31.24C57.5585 31.24 55.8051 30.54 54.4185 29.14C53.0318 27.74 52.3385 26.0267 52.3385 24C52.3385 21.9733 53.0318 20.26 54.4185 18.86C55.8051 17.46 57.5585 16.76 59.6785 16.76C60.9718 16.76 62.1585 17.0733 63.2385 17.7C64.3185 18.3267 65.1518 19.16 65.7385 20.2L64.4985 20.92C64.0585 20.0667 63.4051 19.3867 62.5385 18.88C61.6718 18.3733 60.7185 18.12 59.6785 18.12C57.9318 18.12 56.5051 18.6867 55.3985 19.82C54.2918 20.9533 53.7385 22.3467 53.7385 24C53.7385 25.6533 54.2918 27.0467 55.3985 28.18C56.5051 29.3133 57.9318 29.88 59.6785 29.88C61.2518 29.88 62.5118 29.4867 63.4585 28.7C64.4051 27.9 64.9451 26.8867 65.0785 25.66H59.5185V24.34H66.5185ZM77.0997 29.74C76.0864 30.74 74.8464 31.24 73.3797 31.24C71.913 31.24 70.6664 30.74 69.6397 29.74C68.6264 28.7267 68.1197 27.48 68.1197 26C68.1197 24.52 68.6264 23.28 69.6397 22.28C70.6664 21.2667 71.913 20.76 73.3797 20.76C74.8464 20.76 76.0864 21.2667 77.0997 22.28C78.1264 23.28 78.6397 24.52 78.6397 26C78.6397 27.48 78.1264 28.7267 77.0997 29.74ZM70.5797 28.82C71.3397 29.58 72.273 29.96 73.3797 29.96C74.4864 29.96 75.4197 29.58 76.1797 28.82C76.9397 28.0467 77.3197 27.1067 77.3197 26C77.3197 24.8933 76.9397 23.96 76.1797 23.2C75.4197 22.4267 74.4864 22.04 73.3797 22.04C72.273 22.04 71.3397 22.4267 70.5797 23.2C69.8197 23.96 69.4397 24.8933 69.4397 26C69.4397 27.1067 69.8197 28.0467 70.5797 28.82ZM89.2286 29.74C88.2153 30.74 86.9753 31.24 85.5086 31.24C84.0419 31.24 82.7953 30.74 81.7686 29.74C80.7553 28.7267 80.2486 27.48 80.2486 26C80.2486 24.52 80.7553 23.28 81.7686 22.28C82.7953 21.2667 84.0419 20.76 85.5086 20.76C86.9753 20.76 88.2153 21.2667 89.2286 22.28C90.2553 23.28 90.7686 24.52 90.7686 26C90.7686 27.48 90.2553 28.7267 89.2286 29.74ZM82.7086 28.82C83.4686 29.58 84.4019 29.96 85.5086 29.96C86.6153 29.96 87.5486 29.58 88.3086 28.82C89.0686 28.0467 89.4486 27.1067 89.4486 26C89.4486 24.8933 89.0686 23.96 88.3086 23.2C87.5486 22.4267 86.6153 22.04 85.5086 22.04C84.4019 22.04 83.4686 22.4267 82.7086 23.2C81.9486 23.96 81.5686 24.8933 81.5686 26C81.5686 27.1067 81.9486 28.0467 82.7086 28.82ZM101.578 21H102.898V30.6C102.898 32.04 102.404 33.1733 101.418 34C100.431 34.8267 99.2508 35.24 97.8775 35.24C95.5308 35.24 93.9508 34.4267 93.1375 32.8L94.2975 32.14C94.8975 33.3533 96.0908 33.96 97.8775 33.96C99.0242 33.96 99.9242 33.6533 100.578 33.04C101.244 32.44 101.578 31.6267 101.578 30.6V29.04C100.658 30.5067 99.3108 31.24 97.5375 31.24C96.1108 31.24 94.8908 30.7333 93.8775 29.72C92.8775 28.7067 92.3775 27.4667 92.3775 26C92.3775 24.5333 92.8775 23.2933 93.8775 22.28C94.8908 21.2667 96.1108 20.76 97.5375 20.76C99.3108 20.76 100.658 21.4933 101.578 22.96V21ZM94.8375 28.82C95.5975 29.58 96.5308 29.96 97.6375 29.96C98.7442 29.96 99.6775 29.58 100.438 28.82C101.198 28.0467 101.578 27.1067 101.578 26C101.578 24.8933 101.198 23.96 100.438 23.2C99.6775 22.4267 98.7442 22.04 97.6375 22.04C96.5308 22.04 95.5975 22.4267 94.8375 23.2C94.0775 23.96 93.6975 24.8933 93.6975 26C93.6975 27.1067 94.0775 28.0467 94.8375 28.82ZM105.692 31V16.4H107.012V31H105.692ZM114.433 20.76C115.913 20.76 117.107 21.2867 118.013 22.34C118.933 23.38 119.393 24.6133 119.393 26.04C119.393 26.1867 119.38 26.3933 119.353 26.66H110.573C110.707 27.6733 111.133 28.48 111.853 29.08C112.587 29.6667 113.487 29.96 114.553 29.96C115.313 29.96 115.967 29.8067 116.513 29.5C117.073 29.18 117.493 28.7667 117.773 28.26L118.933 28.94C118.493 29.6467 117.893 30.2067 117.133 30.62C116.373 31.0333 115.507 31.24 114.533 31.24C112.96 31.24 111.68 30.7467 110.693 29.76C109.707 28.7733 109.213 27.52 109.213 26C109.213 24.5067 109.7 23.26 110.673 22.26C111.647 21.26 112.9 20.76 114.433 20.76ZM114.433 22.04C113.393 22.04 112.52 22.3533 111.813 22.98C111.12 23.5933 110.707 24.3933 110.573 25.38H118.033C117.9 24.3267 117.493 23.5067 116.813 22.92C116.133 22.3333 115.34 22.04 114.433 22.04Z" fill="#62626C"/>
<rect x="0.5" y="0.5" width="135.538" height="49" rx="24.5" stroke="#E8E8E9"/>
<defs>
<clipPath id="clip0_1057_8822">
<rect width="23.5385" height="24" fill="white" transform="translate(16 13)"/>
</clipPath>
</defs>
</svg>
