<svg width="161" height="168" viewBox="0 0 161 168" fill="none" xmlns="http://www.w3.org/2000/svg">
<path d="M157.555 27.8403C154.895 24.4874 152.072 25.3641 150.963 25.8588L150.716 26.0012C149.687 26.5961 148.884 27.5144 148.433 28.612C147.982 29.7096 147.908 30.9243 148.223 32.0656C148.95 34.7018 149.707 41.7541 141.05 50.255C140.091 51.1984 139.011 52.0122 137.84 52.6754C130.639 56.7029 121.961 53.2354 117.11 47.744C115.563 45.9667 110.738 39.6314 115.318 33.5778C116.616 31.7844 118.27 30.276 120.176 29.147C127.417 25.1059 134.838 31.2262 134.896 31.2601L135.299 31.6061L135.828 31.7347C137.381 32.0905 139.012 31.8873 140.433 31.1608C141.235 30.6948 141.91 30.0396 142.4 29.253C142.89 28.4664 143.179 27.5723 143.241 26.6496C143.553 24.2531 141.626 21.3646 138.216 19.1284C135.431 17.3033 125.228 11.9785 110.583 20.1645C109.965 20.5205 109.326 20.8891 108.68 21.2619C109.3 17.4326 111.159 13.9067 113.971 11.2223C117.322 8.03699 116.837 4.66331 115.402 2.74439C114.532 1.58876 113.273 0.787122 111.855 0.487227C110.437 0.18734 108.956 0.409398 107.686 1.11249C107.526 1.20464 107.366 1.29678 107.199 1.39311C105.228 2.74177 99.7316 10.1432 96.4005 15.9968C96.8053 14.8862 98.4974 11.0574 99.0218 10.0031C100.391 7.34344 100.603 5.67938 99.257 4.08443C98.6621 3.37285 97.8276 2.90219 96.9088 2.76006C95.9901 2.61792 95.0496 2.81402 94.2627 3.31182C93.9241 3.50225 93.6064 3.72749 93.3147 3.98386C92.7993 4.41602 80.6831 15.1241 80.0503 46.1297C80.0463 46.6428 76.202 50.6334 69.1321 54.5855L62.0577 58.8486L-79.2529 137.454L-62.1505 167.108L78.8808 88.606C83.224 86.7433 87.692 85.1875 92.2518 83.9501C107.233 79.8882 131.984 71.6379 142.834 65.3128C143.647 64.8437 144.432 64.3914 145.143 63.9135C152.995 58.7492 158.122 51.1758 159.619 42.5627C160.642 36.7007 159.796 30.6347 157.555 27.8403Z" fill="#2C912F"/>
</svg>
