<svg width="30" height="29" viewBox="0 0 30 29" fill="none" xmlns="http://www.w3.org/2000/svg">
<path d="M21.4697 0H8.08504C6.01499 0.00221435 4.03036 0.825519 2.56661 2.28927C1.10286 3.75301 0.279558 5.73764 0.277344 7.80769V21.1923C0.279558 23.2624 1.10286 25.247 2.56661 26.7107C4.03036 28.1745 6.01499 28.9978 8.08504 29H21.4697C23.5397 28.9978 25.5243 28.1745 26.9881 26.7107C28.4518 25.247 29.2751 23.2624 29.2773 21.1923V7.80769C29.2751 5.73764 28.4518 3.75301 26.9881 2.28927C25.5243 0.825519 23.5397 0.00221435 21.4697 0ZM14.7773 21.1923C13.4537 21.1923 12.1598 20.7998 11.0593 20.0644C9.95875 19.3291 9.10098 18.2839 8.59446 17.061C8.08793 15.8382 7.9554 14.4926 8.21363 13.1944C8.47185 11.8962 9.10923 10.7038 10.0452 9.76782C10.9811 8.83189 12.1736 8.19451 13.4717 7.93628C14.7699 7.67806 16.1155 7.81059 17.3384 8.31711C18.5612 8.82364 19.6064 9.68141 20.3418 10.782C21.0772 11.8825 21.4697 13.1764 21.4697 14.5C21.4678 16.2743 20.7621 17.9755 19.5075 19.2301C18.2528 20.4848 16.5517 21.1905 14.7773 21.1923ZM23.1427 7.80769C22.8118 7.80769 22.4884 7.70957 22.2132 7.52573C21.9381 7.34189 21.7236 7.08059 21.597 6.77487C21.4704 6.46916 21.4372 6.13276 21.5018 5.80821C21.5664 5.48367 21.7257 5.18555 21.9597 4.95157C22.1937 4.71759 22.4918 4.55824 22.8163 4.49369C23.1409 4.42913 23.4773 4.46226 23.783 4.58889C24.0887 4.71552 24.35 4.92997 24.5338 5.2051C24.7177 5.48024 24.8158 5.80371 24.8158 6.13461C24.8158 6.57834 24.6395 7.0039 24.3258 7.31766C24.012 7.63142 23.5865 7.80769 23.1427 7.80769ZM19.2389 14.5C19.2389 15.3824 18.9772 16.245 18.487 16.9787C17.9967 17.7124 17.2999 18.2842 16.4847 18.6219C15.6695 18.9596 14.7724 19.048 13.9069 18.8758C13.0415 18.7037 12.2465 18.2787 11.6226 17.6548C10.9986 17.0308 10.5737 16.2359 10.4015 15.3704C10.2294 14.5049 10.3177 13.6079 10.6554 12.7926C10.9931 11.9774 11.5649 11.2806 12.2986 10.7904C13.0323 10.3001 13.8949 10.0385 14.7773 10.0385C15.9606 10.0385 17.0954 10.5085 17.9321 11.3452C18.7688 12.1819 19.2389 13.3167 19.2389 14.5Z" fill="black"/>
</svg>
