<svg width="21" height="24" viewBox="0 0 21 24" fill="none" xmlns="http://www.w3.org/2000/svg">
<path fill-rule="evenodd" clip-rule="evenodd" d="M10.2165 0C15.8553 0 20.4324 4.35247 20.4324 9.71411C20.4324 12.7719 18.8483 15.6788 16.9235 18.0578C14.0955 21.5514 10.5605 23.8971 10.5605 23.8971H10.5599C10.3538 24.0343 10.0786 24.0343 9.87254 23.8971H9.87194C9.87194 23.8971 6.33707 21.5514 3.50891 18.0578C1.58414 15.6788 0 12.7719 0 9.71411C0 4.35232 4.57733 0 10.216 0H10.2165ZM10.2165 5.71444C7.89511 5.71444 6.00974 7.507 6.00974 9.71431C6.00974 11.9218 7.89511 13.7144 10.2165 13.7144C12.5378 13.7144 14.4232 11.9218 14.4232 9.71431C14.4232 7.507 12.5378 5.71444 10.2165 5.71444Z" fill="#141423"/>
</svg>
