<svg width="14" height="16" viewBox="0 0 14 16" fill="none" xmlns="http://www.w3.org/2000/svg">
<path fill-rule="evenodd" clip-rule="evenodd" d="M6.81097 0C10.5702 0 13.6216 2.90165 13.6216 6.47607C13.6216 8.5146 12.5655 10.4526 11.2823 12.0385C9.39701 14.3676 7.04033 15.9314 7.04033 15.9314H7.03993C6.90257 16.0229 6.71906 16.0229 6.58169 15.9314H6.58129C6.58129 15.9314 4.22471 14.3676 2.33927 12.0385C1.05609 10.4526 0 8.5146 0 6.47607C0 2.90155 3.05155 0 6.81065 0H6.81097ZM6.81097 3.80963C5.26341 3.80963 4.00649 5.00466 4.00649 6.4762C4.00649 7.94788 5.26341 9.14291 6.81097 9.14291C8.35854 9.14291 9.61545 7.94788 9.61545 6.4762C9.61545 5.00466 8.35854 3.80963 6.81097 3.80963Z" fill="#93939A"/>
</svg>
