<svg width="20" height="24" viewBox="0 0 20 24" fill="none" xmlns="http://www.w3.org/2000/svg">
<path fill-rule="evenodd" clip-rule="evenodd" d="M9.69254 0C15.0422 0 19.3846 4.35247 19.3846 9.71411C19.3846 12.7719 17.8817 15.6788 16.0556 18.0578C13.3727 21.5514 10.0189 23.8971 10.0189 23.8971H10.0184C9.82288 24.0343 9.56174 24.0343 9.36626 23.8971H9.36568C9.36568 23.8971 6.01209 21.5514 3.32897 18.0578C1.5029 15.6788 0 12.7719 0 9.71411C0 4.35232 4.3426 0 9.69208 0H9.69254ZM9.69254 5.71444C7.49023 5.71444 5.70155 7.50699 5.70155 9.71431C5.70155 11.9218 7.49023 13.7144 9.69254 13.7144C11.8948 13.7144 13.6835 11.9218 13.6835 9.71431C13.6835 7.50699 11.8948 5.71444 9.69254 5.71444Z" fill="#141423"/>
</svg>
